HIERARCHY
ROOT Hips
{
	OFFSET -0.001795 -0.223333 0.028219
	CHANNELS 6 Xposition Yposition Zposition Zrotation Yrotation Xrotation 
	JOINT LeftUpLeg
	{
		OFFSET 0.069520 -0.091406 -0.006815
		CHANNELS 3 Zrotation Yrotation Xrotation
		JOINT LeftLeg
		{
			OFFSET 0.034277 -0.375199 -0.004496
			CHANNELS 3 Zrotation Yrotation Xrotation
			JOINT LeftFoot
			{
				OFFSET -0.013596 -0.397961 -0.043693
				CHANNELS 3 Zrotation Yrotation Xrotation
				JOINT LeftToe
				{
					OFFSET 0.026358 -0.055791 0.119288
					CHANNELS 3 Zrotation Yrotation Xrotation
					End Site
					{
						OFFSET 0.000000 0.000000 0.000000
					}
				}
			}
		}
	}
	JOINT RightUpLeg
	{
		OFFSET -0.067670 -0.090522 -0.004320
		CHANNELS 3 Zrotation Yrotation Xrotation
		JOINT RightLeg
		{
			OFFSET -0.038290 -0.382569 -0.008850
			CHANNELS 3 Zrotation Yrotation Xrotation
			JOINT RightFoot
			{
				OFFSET 0.015774 -0.398415 -0.042312
				CHANNELS 3 Zrotation Yrotation Xrotation
				JOINT RightToe
				{
					OFFSET -0.025372 -0.048144 0.123348
					CHANNELS 3 Zrotation Yrotation Xrotation
					End Site
					{
						OFFSET 0.000000 0.000000 0.000000
					}
				}
			}
		}
	}
	JOINT Spine
	{
		OFFSET -0.002533 0.108963 -0.026696
		CHANNELS 3 Zrotation Yrotation Xrotation
		JOINT Spine1
		{
			OFFSET 0.005487 0.135180 0.001092
			CHANNELS 3 Zrotation Yrotation Xrotation
			JOINT Spine2
			{
				OFFSET 0.001457 0.052922 0.025425
				CHANNELS 3 Zrotation Yrotation Xrotation
				JOINT Neck
				{
					OFFSET -0.002778 0.213870 -0.042857
					CHANNELS 3 Zrotation Yrotation Xrotation
					JOINT Head
					{
						OFFSET 0.005152 0.064970 0.051349
						CHANNELS 3 Zrotation Yrotation Xrotation
						End Site
						{
							OFFSET 0.000000 0.000000 0.000000
						}
					}
				}
				JOINT LeftShoulder
				{
					OFFSET 0.078845 0.121749 -0.034090
					CHANNELS 3 Zrotation Yrotation Xrotation
					JOINT LeftArm
					{
						OFFSET 0.090977 0.030469 -0.008868
						CHANNELS 3 Zrotation Yrotation Xrotation
						JOINT LeftForeArm
						{
							OFFSET 0.259612 -0.012772 -0.027456
							CHANNELS 3 Zrotation Yrotation Xrotation
							JOINT LeftHand
							{
								OFFSET 0.249234 0.008986 -0.001171
								CHANNELS 3 Zrotation Yrotation Xrotation
								End Site
								{
									OFFSET 0.000000 0.000000 0.000000
								}
							}
						}
					}
				}
				JOINT RightShoulder
				{
					OFFSET -0.081759 0.118833 -0.038615
					CHANNELS 3 Zrotation Yrotation Xrotation
					JOINT RightArm
					{
						OFFSET -0.096012 0.032551 -0.009143
						CHANNELS 3 Zrotation Yrotation Xrotation
						JOINT RightForeArm
						{
							OFFSET -0.253742 -0.013329 -0.021401
							CHANNELS 3 Zrotation Yrotation Xrotation
							JOINT RightHand
							{
								OFFSET -0.255298 0.007772 -0.005559
								CHANNELS 3 Zrotation Yrotation Xrotation
								End Site
								{
									OFFSET 0.000000 0.000000 0.000000
								}
							}
						}
					}
				}
			}
		}
	}
}
MOTION
Frames: 9
Frame Time: 0.050000
-0.152948 0.943167 0.733546 -0.736972 6.633635 -2.821543 3.610946 -0.002268 1.245338 -3.159735 0.312505 -1.378186 5.498329 13.395683 9.086314 0.000000 0.000000 0.000000 -0.512595 -0.076668 0.742664 -1.008562 0.273689 3.491125 -5.067640 -13.478793 6.889832 0.000000 0.000000 0.000000 5.600892 -0.385358 4.188133 -1.138624 0.632161 -2.099414 -5.699953 8.098568 7.896462 9.935487 -3.095778 -18.858631 0.000000 0.000000 0.000000 -11.872583 -8.533300 0.618938 -43.983113 -14.626971 0.135243 1.461354 -72.317077 -2.311723 0.000000 0.000000 0.000000 17.342587 -1.490416 0.500520 55.514570 18.957336 2.949811 -12.111862 70.309339 -0.482377 0.000000 0.000000 0.000000 
-0.147041 0.943345 0.729601 -0.942015 6.371862 -2.872006 3.496376 -0.015765 0.884015 -3.267976 0.320167 -0.868597 5.772016 13.742767 8.676893 0.000000 0.000000 0.000000 -0.677490 0.007382 -0.084078 -0.636932 0.257272 4.532212 -5.019487 -13.371810 6.779643 0.000000 0.000000 0.000000 5.640627 -0.389746 4.230475 -1.417911 0.757521 -2.053450 -5.873642 8.806449 7.766480 10.245861 -3.194514 -18.938519 0.000000 0.000000 0.000000 -11.940936 -9.700886 0.991806 -43.619355 -17.062614 1.028908 5.512230 -68.477821 -5.050087 0.000000 0.000000 0.000000 17.164122 -0.273013 1.294571 54.138980 20.717393 3.591978 -12.653227 64.820110 -0.828628 0.000000 0.000000 0.000000 
-0.141444 0.943187 0.725796 -1.107514 6.217339 -2.963216 3.275668 -0.019475 0.680467 -3.085991 0.303371 -0.591639 6.069831 14.176576 8.460611 0.000000 0.000000 0.000000 -0.887239 0.100789 -1.051456 -0.361190 0.261431 5.944201 -4.973372 -13.255395 6.592414 0.000000 0.000000 0.000000 5.450427 -0.411988 4.572268 -1.592476 0.840502 -2.168969 -5.892097 9.085569 7.778641 10.329959 -3.220980 -18.939485 0.000000 0.000000 0.000000 -12.312803 -10.588522 1.263548 -43.036778 -19.352263 1.853767 8.760571 -65.307365 -6.847474 0.000000 0.000000 0.000000 16.490653 1.038618 2.002873 53.065067 22.167704 4.143791 -13.006255 60.014052 -1.111627 0.000000 0.000000 0.000000 
-0.136372 0.943240 0.722420 -1.457538 5.878573 -2.968994 3.242567 -0.019831 0.623420 -3.059435 0.301979 -0.461648 6.425274 14.714054 8.327556 0.000000 0.000000 0.000000 -0.980488 0.207919 -2.192423 0.049044 0.229269 7.207476 -4.925555 -13.152014 6.509713 0.000000 0.000000 0.000000 5.629087 -0.430685 4.688174 -1.763522 0.916145 -2.151906 -6.153698 9.308707 7.799285 10.436412 -3.299055 -18.821642 0.000000 0.000000 0.000000 -12.436219 -11.550779 1.635174 -42.416109 -21.450631 2.556677 12.887717 -62.323656 -8.948577 0.000000 0.000000 0.000000 15.917091 2.061979 2.527055 51.978428 23.207673 4.469046 -14.521912 56.346320 -1.931930 0.000000 0.000000 0.000000 
-0.132103 0.943490 0.719781 -1.518983 5.919129 -2.722536 3.024914 -0.031299 0.378159 -2.953936 0.292501 -0.550989 6.624766 15.024169 8.246729 0.000000 0.000000 0.000000 -1.214965 0.288914 -3.119775 0.373068 0.188784 8.007055 -4.992782 -13.281330 6.507437 0.000000 0.000000 0.000000 5.525112 -0.426208 4.633058 -1.876601 0.973979 -2.433237 -6.155350 9.272990 7.959889 10.409320 -3.307650 -18.721111 0.000000 0.000000 0.000000 -12.247013 -12.155675 1.934229 -42.062302 -23.123349 3.058729 16.837263 -60.764384 -10.987707 0.000000 0.000000 0.000000 15.048398 2.641690 2.740057 51.406857 23.804012 4.705400 -15.864862 54.066730 -2.559805 0.000000 0.000000 0.000000 
-0.128830 0.943880 0.718045 -1.618317 5.868396 -2.546302 3.011317 -0.027461 0.455970 -3.126341 0.310281 -0.839641 6.772788 15.303384 8.513470 0.000000 0.000000 0.000000 -1.180249 0.327893 -3.534144 0.441351 0.181016 8.213107 -4.906860 -13.125478 6.814106 0.000000 0.000000 0.000000 5.451496 -0.408018 4.434222 -1.981571 1.024003 -2.589153 -6.112953 9.284242 8.137635 10.307182 -3.258733 -18.676689 0.000000 0.000000 0.000000 -11.940993 -12.767159 2.251174 -41.731966 -25.012189 3.613532 20.706564 -59.259281 -12.893234 0.000000 0.000000 0.000000 14.406176 2.836522 2.765447 50.647674 24.109761 4.745683 -18.265707 52.337435 -3.605893 0.000000 0.000000 0.000000 
-0.126398 0.944249 0.717226 -1.684539 5.950947 -2.385040 2.892604 -0.017021 0.612684 -2.881719 0.290941 -1.156009 6.776346 15.337581 8.682110 0.000000 0.000000 0.000000 -0.930549 0.329744 -3.475181 0.342834 0.183599 7.593574 -4.893668 -13.127480 7.212364 0.000000 0.000000 0.000000 5.429655 -0.380413 4.107855 -2.017923 1.038198 -2.500853 -6.094127 8.841327 8.122166 9.971979 -3.154920 -18.409054 0.000000 0.000000 0.000000 -11.670042 -12.952630 2.447798 -41.343208 -26.251899 3.939252 24.116287 -58.184580 -14.463734 0.000000 0.000000 0.000000 13.601008 3.121055 2.742573 50.675307 24.249643 4.899424 -20.942470 51.168282 -4.786878 0.000000 0.000000 0.000000 
-0.124634 0.944233 0.717266 -1.709018 5.713280 -2.375677 2.855318 0.010451 1.029495 -2.975377 0.302411 -1.401468 6.973054 15.689417 9.007741 0.000000 0.000000 0.000000 -0.706751 0.301871 -3.114556 0.208348 0.187524 6.721644 -4.648991 -12.677011 7.657224 0.000000 0.000000 0.000000 5.230374 -0.363011 4.015808 -2.003622 1.030956 -2.534260 -5.933712 8.850470 8.174848 9.616786 -2.963701 -18.346156 0.000000 0.000000 0.000000 -11.332052 -13.207465 2.630663 -41.244059 -27.281709 4.228230 27.786034 -57.441734 -16.336425 0.000000 0.000000 0.000000 13.158255 3.217921 2.711965 50.647613 24.397487 5.003646 -23.027154 50.147017 -5.607380 0.000000 0.000000 0.000000 
-0.123405 0.944089 0.717761 -1.738451 5.634077 -2.425195 2.642596 0.051319 1.584329 -2.826242 0.296389 -2.069750 7.054472 15.849144 9.265617 0.000000 0.000000 0.000000 -0.462088 0.230760 -2.326061 -0.094035 0.202651 5.453287 -4.478623 -12.375976 8.043113 0.000000 0.000000 0.000000 5.309237 -0.348227 3.829516 -2.008339 1.028602 -2.349401 -5.861713 8.613530 8.364683 9.315298 -2.849256 -18.174396 0.000000 0.000000 0.000000 -11.071814 -13.105721 2.678658 -41.242303 -28.304182 4.511396 30.038354 -56.268963 -17.144449 0.000000 0.000000 0.000000 13.003831 3.170780 2.629371 50.947589 24.587994 5.134388 -25.061626 49.218122 -6.354210 0.000000 0.000000 0.000000 
